<?xml version="1.0" encoding="UTF-8" standalone="no"?>
<svg
   width="128"
   height="128"
   viewBox="0 0 33.867 33.867"
   version="1.1"
   xmlns="http://www.w3.org/2000/svg"
   xmlns:svg="http://www.w3.org/2000/svg">
  <g>
    <circle
       style="fill:#4285f4;fill-opacity:1;stroke:none;stroke-width:0.264583"
       cx="16.933"
       cy="16.933"
       r="16.933" />
    <path
       style="fill:#ffffff;fill-opacity:1;stroke:none;stroke-width:0.264583"
       d="m 16.933,8.467 c -4.693,0 -8.467,3.773 -8.467,8.467 0,4.693 3.773,8.467 8.467,8.467 4.693,0 8.467,-3.773 8.467,-8.467 0,-4.693 -3.773,-8.467 -8.467,-8.467 z m 0,2.117 c 3.508,0 6.35,2.842 6.35,6.35 0,3.508 -2.842,6.35 -6.35,6.35 -3.508,0 -6.35,-2.842 -6.35,-6.35 0,-3.508 2.842,-6.35 6.35,-6.35 z" />
    <path
       style="fill:#ffffff;fill-opacity:1;stroke:none;stroke-width:0.264583"
       d="m 22.225,12.7 -5.292,5.292 -5.292,-5.292 -1.497,1.497 5.292,5.292 -5.292,5.292 1.497,1.497 5.292,-5.292 5.292,5.292 1.497,-1.497 -5.292,-5.292 5.292,-5.292 z"
       transform="rotate(45,16.933,16.933)" />
  </g>
</svg>
